<svg height="682pt" viewBox="-21 -54 682.66538 682" width="682pt" xmlns="http://www.w3.org/2000/svg"><path d="m555.789062 82.375c-54.300781-54.300781-126.5-84.207031-203.289062-84.207031-108.863281 0-208.429688 61.84375-257.019531 158.5625h-69.042969c-10.726562 0-20.304688 6.402343-24.414062 16.3125-4.105469 9.914062-1.855469 21.21875 5.730468 28.804687l88.207032 88.207032c4.507812 4.507812 10.503906 6.992187 16.882812 6.992187s12.371094-2.480469 16.875-6.984375l88.214844-88.214844c7.582031-7.585937 9.832031-18.890625 5.726562-28.804687-4.101562-9.910157-13.6875-16.3125-24.414062-16.3125h-60.972656c44.863281-74.382813 126.03125-121.0625 214.226562-121.0625 137.851562 0 250 112.148437 250 250 0 137.847656-112.148438 249.996093-250 249.996093-66.777344 0-129.558594-26-176.777344-73.214843-7.320312-7.324219-19.195312-7.324219-26.515625 0-7.324219 7.316406-7.324219 19.191406 0 26.511719 54.296875 54.300781 126.496094 84.203124 203.292969 84.203124s148.988281-29.902343 203.292969-84.203124c54.304687-54.300782 84.207031-126.5 84.207031-203.292969s-29.902344-148.992188-84.210938-203.292969zm0 0"/></svg>